<?xml version="1.0" encoding="UTF-8" standalone="no"?>
<!DOCTYPE svg PUBLIC "-//W3C//DTD SVG 1.1//EN"
 "http://www.w3.org/Graphics/SVG/1.1/DTD/svg11.dtd">
<!-- Generated by graphviz version 12.2.1 (0)
 -->
<!-- Title: dag Pages: 1 -->
<svg width="5825pt" height="581pt"
 viewBox="0.00 0.00 5825.45 581.00" xmlns="http://www.w3.org/2000/svg" xmlns:xlink="http://www.w3.org/1999/xlink">
<g id="graph0" class="graph" transform="scale(1 1) rotate(0) translate(4 577)">
<title>dag</title>
<polygon fill="white" stroke="none" points="-4,4 -4,-577 5821.45,-577 5821.45,4 -4,4"/>
<!-- v0 -->
<g id="node1" class="node">
<title>v0</title>
<ellipse fill="black" stroke="black" cx="788.2" cy="-206" rx="3.6" ry="3.6"/>
<text text-anchor="middle" x="754.98" y="-190.05" font-family="Times,serif" font-size="13.00">Channel.of</text>
</g>
<!-- v4 -->
<g id="node2" class="node">
<title>v4</title>
<ellipse fill="none" stroke="black" cx="1160.2" cy="-208" rx="36" ry="36"/>
<text text-anchor="middle" x="1101.32" y="-159.65" font-family="Times,serif" font-size="13.00">combine</text>
</g>
<!-- v0&#45;&gt;v4 -->
<g id="edge1" class="edge">
<title>v0&#45;&gt;v4</title>
<path fill="none" stroke="black" d="M791.9,-205.85C810.69,-204.79 923.99,-198.74 1016.2,-201 1048.38,-201.79 1084.59,-203.57 1112.53,-205.14"/>
<polygon fill="black" stroke="black" points="1112.26,-208.63 1122.45,-205.71 1112.66,-201.64 1112.26,-208.63"/>
<text text-anchor="middle" x="974.2" y="-203.65" font-family="Times,serif" font-size="13.00">reads_ch</text>
</g>
<!-- v5 -->
<g id="node6" class="node">
<title>v5</title>
<ellipse fill="none" stroke="black" cx="1498.45" cy="-208" rx="36" ry="36"/>
<text text-anchor="middle" x="1444.07" y="-159.65" font-family="Times,serif" font-size="13.00">branch</text>
</g>
<!-- v4&#45;&gt;v5 -->
<g id="edge5" class="edge">
<title>v4&#45;&gt;v5</title>
<path fill="none" stroke="black" d="M1196.55,-208C1257.6,-208 1382.77,-208 1450.85,-208"/>
<polygon fill="black" stroke="black" points="1450.56,-211.5 1460.56,-208 1450.56,-204.5 1450.56,-211.5"/>
<text text-anchor="middle" x="1329.32" y="-210.65" font-family="Times,serif" font-size="13.00">reads_ref</text>
</g>
<!-- v1 -->
<g id="node3" class="node">
<title>v1</title>
<ellipse fill="black" stroke="black" cx="101.1" cy="-355" rx="3.6" ry="3.6"/>
<text text-anchor="middle" x="48.75" y="-339.05" font-family="Times,serif" font-size="13.00">Channel.fromPath</text>
</g>
<!-- v2 -->
<g id="node4" class="node">
<title>v2</title>
<ellipse fill="none" stroke="black" cx="445.2" cy="-355" rx="90" ry="36"/>
<text text-anchor="middle" x="445.2" y="-350.15" font-family="Times,serif" font-size="13.00">INDEX_REFERENCE</text>
</g>
<!-- v1&#45;&gt;v2 -->
<g id="edge2" class="edge">
<title>v1&#45;&gt;v2</title>
<path fill="none" stroke="black" d="M105.06,-355C125.81,-355 251.42,-355 343.75,-355"/>
<polygon fill="black" stroke="black" points="343.61,-358.5 353.61,-355 343.61,-351.5 343.61,-358.5"/>
<text text-anchor="middle" x="229.95" y="-357.65" font-family="Times,serif" font-size="13.00">ref_ch</text>
</g>
<!-- v3 -->
<g id="node5" class="node">
<title>v3</title>
<ellipse fill="none" stroke="black" cx="788.2" cy="-355" rx="36" ry="36"/>
<text text-anchor="middle" x="741.32" y="-306.65" font-family="Times,serif" font-size="13.00">first</text>
</g>
<!-- v2&#45;&gt;v3 -->
<g id="edge3" class="edge">
<title>v2&#45;&gt;v3</title>
<path fill="none" stroke="black" d="M535.35,-355C601.03,-355 687.74,-355 740.39,-355"/>
<polygon fill="black" stroke="black" points="740.21,-358.5 750.21,-355 740.21,-351.5 740.21,-358.5"/>
</g>
<!-- v3&#45;&gt;v4 -->
<g id="edge4" class="edge">
<title>v3&#45;&gt;v4</title>
<path fill="none" stroke="black" d="M821.38,-340.49C850.23,-327.62 893.81,-308.5 932.2,-293 995.29,-267.53 1069.22,-240.33 1115.15,-223.74"/>
<polygon fill="black" stroke="black" points="1116.27,-227.06 1124.49,-220.38 1113.9,-220.47 1116.27,-227.06"/>
<text text-anchor="middle" x="974.2" y="-295.65" font-family="Times,serif" font-size="13.00">ref_indexed_ch</text>
</g>
<!-- v9 -->
<g id="node10" class="node">
<title>v9</title>
<ellipse fill="none" stroke="black" cx="2577.95" cy="-269" rx="36" ry="36"/>
<text text-anchor="middle" x="2519.07" y="-220.65" font-family="Times,serif" font-size="13.00">combine</text>
</g>
<!-- v3&#45;&gt;v9 -->
<g id="edge11" class="edge">
<title>v3&#45;&gt;v9</title>
<path fill="none" stroke="black" d="M824.66,-355C890.55,-355 1036.35,-355 1159.2,-355 1159.2,-355 1159.2,-355 2268.45,-355 2366.59,-355 2476.06,-314.11 2534.58,-288.72"/>
<polygon fill="black" stroke="black" points="2535.77,-292.02 2543.51,-284.79 2532.95,-285.62 2535.77,-292.02"/>
<text text-anchor="middle" x="1684.45" y="-357.65" font-family="Times,serif" font-size="13.00">ref_indexed_ch</text>
</g>
<!-- v20 -->
<g id="node20" class="node">
<title>v20</title>
<ellipse fill="none" stroke="black" cx="5438.45" cy="-408" rx="90" ry="36"/>
<text text-anchor="middle" x="5438.45" y="-403.15" font-family="Times,serif" font-size="13.00">QC_SUMMARY</text>
</g>
<!-- v3&#45;&gt;v20 -->
<g id="edge27" class="edge">
<title>v3&#45;&gt;v20</title>
<path fill="none" stroke="black" d="M813.95,-380.3C869.98,-434.72 1013.03,-558 1159.2,-558 1159.2,-558 1159.2,-558 5096.45,-558 5207.26,-558 5322.48,-490.82 5386.58,-446.38"/>
<polygon fill="black" stroke="black" points="5388.25,-449.48 5394.42,-440.87 5384.22,-443.75 5388.25,-449.48"/>
<text text-anchor="middle" x="3096.2" y="-560.65" font-family="Times,serif" font-size="13.00">ref_indexed_ch</text>
</g>
<!-- v6 -->
<g id="node7" class="node">
<title>v6</title>
<ellipse fill="none" stroke="black" cx="1924.45" cy="-209" rx="90" ry="36"/>
<text text-anchor="middle" x="1924.45" y="-204.15" font-family="Times,serif" font-size="13.00">ALIGN_MINIMAP2</text>
</g>
<!-- v5&#45;&gt;v6 -->
<g id="edge6" class="edge">
<title>v5&#45;&gt;v6</title>
<path fill="none" stroke="black" d="M1534.87,-208.08C1597.54,-208.23 1730.09,-208.54 1822.87,-208.76"/>
<polygon fill="black" stroke="black" points="1822.74,-212.26 1832.75,-208.79 1822.75,-205.26 1822.74,-212.26"/>
</g>
<!-- v7 -->
<g id="node8" class="node">
<title>v7</title>
<ellipse fill="none" stroke="black" cx="1924.45" cy="-65" rx="90" ry="36"/>
<text text-anchor="middle" x="1924.45" y="-60.15" font-family="Times,serif" font-size="13.00">ALIGN_PBMM2</text>
</g>
<!-- v5&#45;&gt;v7 -->
<g id="edge7" class="edge">
<title>v5&#45;&gt;v7</title>
<path fill="none" stroke="black" d="M1533.07,-196.66C1599.77,-174.17 1750.42,-123.36 1843.86,-91.84"/>
<polygon fill="black" stroke="black" points="1844.89,-95.19 1853.24,-88.68 1842.65,-88.56 1844.89,-95.19"/>
</g>
<!-- v8 -->
<g id="node9" class="node">
<title>v8</title>
<ellipse fill="none" stroke="black" cx="2267.45" cy="-153" rx="36" ry="36"/>
<text text-anchor="middle" x="2221.32" y="-104.65" font-family="Times,serif" font-size="13.00">mix</text>
</g>
<!-- v6&#45;&gt;v8 -->
<g id="edge8" class="edge">
<title>v6&#45;&gt;v8</title>
<path fill="none" stroke="black" d="M2008,-195.44C2074.66,-184.5 2166.02,-169.49 2220.36,-160.57"/>
<polygon fill="black" stroke="black" points="2220.91,-164.03 2230.21,-158.95 2219.77,-157.12 2220.91,-164.03"/>
</g>
<!-- v7&#45;&gt;v8 -->
<g id="edge9" class="edge">
<title>v7&#45;&gt;v8</title>
<path fill="none" stroke="black" d="M2000.71,-84.42C2068.23,-101.85 2165.1,-126.85 2221.32,-141.35"/>
<polygon fill="black" stroke="black" points="2220.32,-144.71 2230.87,-143.82 2222.07,-137.93 2220.32,-144.71"/>
</g>
<!-- v8&#45;&gt;v9 -->
<g id="edge10" class="edge">
<title>v8&#45;&gt;v9</title>
<path fill="none" stroke="black" d="M2301.46,-165.41C2357.33,-186.42 2470.52,-228.98 2533.02,-252.48"/>
<polygon fill="black" stroke="black" points="2531.7,-255.72 2542.29,-255.97 2534.16,-249.17 2531.7,-255.72"/>
<text text-anchor="middle" x="2422.7" y="-217.13" font-family="Times,serif" font-size="13.00">bam</text>
</g>
<!-- v16 -->
<g id="node17" class="node">
<title>v16</title>
<ellipse fill="none" stroke="black" cx="4452.45" cy="-231" rx="36" ry="36"/>
<text text-anchor="middle" x="4405.95" y="-182.65" font-family="Times,serif" font-size="13.00">join</text>
</g>
<!-- v8&#45;&gt;v16 -->
<g id="edge21" class="edge">
<title>v8&#45;&gt;v16</title>
<path fill="none" stroke="black" d="M2294.73,-129.43C2345.42,-86.51 2461.87,0 2576.95,0 2576.95,0 2576.95,0 4148.2,0 4273.1,0 4378.65,-125.53 4425.5,-191.52"/>
<polygon fill="black" stroke="black" points="4422.52,-193.37 4431.12,-199.56 4428.26,-189.36 4422.52,-193.37"/>
<text text-anchor="middle" x="3336.2" y="-2.65" font-family="Times,serif" font-size="13.00">bam</text>
</g>
<!-- v10 -->
<g id="node11" class="node">
<title>v10</title>
<ellipse fill="none" stroke="black" cx="2910.2" cy="-269" rx="36" ry="36"/>
<text text-anchor="middle" x="2855.82" y="-220.65" font-family="Times,serif" font-size="13.00">branch</text>
</g>
<!-- v9&#45;&gt;v10 -->
<g id="edge12" class="edge">
<title>v9&#45;&gt;v10</title>
<path fill="none" stroke="black" d="M2614.29,-269C2674.26,-269 2795.9,-269 2862.7,-269"/>
<polygon fill="black" stroke="black" points="2862.6,-272.5 2872.6,-269 2862.6,-265.5 2862.6,-272.5"/>
<text text-anchor="middle" x="2744.07" y="-271.65" font-family="Times,serif" font-size="13.00">bam_ref</text>
</g>
<!-- v11 -->
<g id="node12" class="node">
<title>v11</title>
<ellipse fill="none" stroke="black" cx="3336.2" cy="-269" rx="90" ry="36"/>
<text text-anchor="middle" x="3336.2" y="-264.15" font-family="Times,serif" font-size="13.00">CALL_BCFTOOLS</text>
</g>
<!-- v10&#45;&gt;v11 -->
<g id="edge13" class="edge">
<title>v10&#45;&gt;v11</title>
<path fill="none" stroke="black" d="M2946.62,-269C3009.29,-269 3141.84,-269 3234.62,-269"/>
<polygon fill="black" stroke="black" points="3234.5,-272.5 3244.5,-269 3234.5,-265.5 3234.5,-272.5"/>
</g>
<!-- v12 -->
<g id="node13" class="node">
<title>v12</title>
<ellipse fill="none" stroke="black" cx="3336.2" cy="-413" rx="90" ry="36"/>
<text text-anchor="middle" x="3336.2" y="-408.15" font-family="Times,serif" font-size="13.00">CALL_CLAIR3</text>
</g>
<!-- v10&#45;&gt;v12 -->
<g id="edge14" class="edge">
<title>v10&#45;&gt;v12</title>
<path fill="none" stroke="black" d="M2943.93,-282.24C2972.78,-293.75 3016.04,-310.63 3054.2,-324 3120.3,-347.16 3196.05,-370.99 3252.23,-388.16"/>
<polygon fill="black" stroke="black" points="3251.16,-391.5 3261.75,-391.07 3253.2,-384.8 3251.16,-391.5"/>
</g>
<!-- v13 -->
<g id="node14" class="node">
<title>v13</title>
<ellipse fill="none" stroke="black" cx="3624.2" cy="-135" rx="90" ry="36"/>
<text text-anchor="middle" x="3624.2" y="-130.15" font-family="Times,serif" font-size="13.00">CALL_DEEPVARIANT</text>
</g>
<!-- v10&#45;&gt;v13 -->
<g id="edge15" class="edge">
<title>v10&#45;&gt;v13</title>
<path fill="none" stroke="black" d="M2945.33,-261.09C3005.78,-247.21 3135.74,-217.94 3246.2,-197 3342.01,-178.84 3452.12,-161.09 3528.5,-149.27"/>
<polygon fill="black" stroke="black" points="3528.67,-152.78 3538.02,-147.8 3527.6,-145.86 3528.67,-152.78"/>
</g>
<!-- v14 -->
<g id="node15" class="node">
<title>v14</title>
<ellipse fill="none" stroke="black" cx="3858.2" cy="-291" rx="36" ry="36"/>
<text text-anchor="middle" x="3812.07" y="-242.65" font-family="Times,serif" font-size="13.00">mix</text>
</g>
<!-- v11&#45;&gt;v14 -->
<g id="edge16" class="edge">
<title>v11&#45;&gt;v14</title>
<path fill="none" stroke="black" d="M3426,-272.76C3537.35,-277.47 3724.1,-285.37 3810.61,-289.03"/>
<polygon fill="black" stroke="black" points="3810.24,-292.52 3820.38,-289.44 3810.53,-285.52 3810.24,-292.52"/>
</g>
<!-- v12&#45;&gt;v14 -->
<g id="edge17" class="edge">
<title>v12&#45;&gt;v14</title>
<path fill="none" stroke="black" d="M3419.39,-398.75C3496.14,-384.84 3613.63,-362.02 3714.2,-336 3747.68,-327.34 3784.92,-315.55 3813.01,-306.21"/>
<polygon fill="black" stroke="black" points="3813.88,-309.61 3822.24,-303.11 3811.65,-302.97 3813.88,-309.61"/>
</g>
<!-- v15 -->
<g id="node16" class="node">
<title>v15</title>
<ellipse fill="none" stroke="black" cx="4147.2" cy="-231" rx="36" ry="36"/>
<text text-anchor="middle" x="4101.07" y="-182.65" font-family="Times,serif" font-size="13.00">mix</text>
</g>
<!-- v13&#45;&gt;v15 -->
<g id="edge18" class="edge">
<title>v13&#45;&gt;v15</title>
<path fill="none" stroke="black" d="M3706.61,-150C3817.4,-170.41 4011.96,-206.26 4100.27,-222.54"/>
<polygon fill="black" stroke="black" points="4099.55,-225.96 4110.02,-224.33 4100.82,-219.08 4099.55,-225.96"/>
</g>
<!-- v14&#45;&gt;v15 -->
<g id="edge19" class="edge">
<title>v14&#45;&gt;v15</title>
<path fill="none" stroke="black" d="M3893.82,-283.76C3945.53,-272.95 4043.02,-252.57 4100.52,-240.55"/>
<polygon fill="black" stroke="black" points="4100.9,-244.05 4109.98,-238.57 4099.47,-237.19 4100.9,-244.05"/>
</g>
<!-- v15&#45;&gt;v16 -->
<g id="edge20" class="edge">
<title>v15&#45;&gt;v16</title>
<path fill="none" stroke="black" d="M4183.58,-231C4238.48,-231 4344.17,-231 4405.1,-231"/>
<polygon fill="black" stroke="black" points="4404.78,-234.5 4414.78,-231 4404.78,-227.5 4404.78,-234.5"/>
<text text-anchor="middle" x="4299.82" y="-233.65" font-family="Times,serif" font-size="13.00">vcf</text>
</g>
<!-- v17 -->
<g id="node18" class="node">
<title>v17</title>
<ellipse fill="none" stroke="black" cx="4741.45" cy="-264" rx="36" ry="36"/>
<text text-anchor="middle" x="4694.2" y="-215.65" font-family="Times,serif" font-size="13.00">map</text>
</g>
<!-- v16&#45;&gt;v17 -->
<g id="edge22" class="edge">
<title>v16&#45;&gt;v17</title>
<path fill="none" stroke="black" d="M4488.64,-235.05C4540.31,-240.99 4636.78,-252.08 4694.15,-258.68"/>
<polygon fill="black" stroke="black" points="4693.58,-262.13 4703.92,-259.8 4694.38,-255.18 4693.58,-262.13"/>
</g>
<!-- v18 -->
<g id="node19" class="node">
<title>v18</title>
<ellipse fill="none" stroke="black" cx="5095.45" cy="-408" rx="36" ry="36"/>
<text text-anchor="middle" x="5048.2" y="-359.65" font-family="Times,serif" font-size="13.00">map</text>
</g>
<!-- v17&#45;&gt;v18 -->
<g id="edge23" class="edge">
<title>v17&#45;&gt;v18</title>
<path fill="none" stroke="black" d="M4775.25,-277.42C4839.05,-303.52 4979.84,-361.11 5051.19,-390.3"/>
<polygon fill="black" stroke="black" points="5049.62,-393.44 5060.2,-393.99 5052.27,-386.96 5049.62,-393.44"/>
<text text-anchor="middle" x="4918.45" y="-351.55" font-family="Times,serif" font-size="13.00">bam_vcf_ch</text>
</g>
<!-- v19 -->
<g id="node21" class="node">
<title>v19</title>
<ellipse fill="none" stroke="black" cx="5095.45" cy="-264" rx="36" ry="36"/>
<text text-anchor="middle" x="5048.2" y="-215.65" font-family="Times,serif" font-size="13.00">map</text>
</g>
<!-- v17&#45;&gt;v19 -->
<g id="edge25" class="edge">
<title>v17&#45;&gt;v19</title>
<path fill="none" stroke="black" d="M4777.81,-264C4841.72,-264 4976.44,-264 5047.8,-264"/>
<polygon fill="black" stroke="black" points="5047.6,-267.5 5057.6,-264 5047.6,-260.5 5047.6,-267.5"/>
<text text-anchor="middle" x="4918.45" y="-266.65" font-family="Times,serif" font-size="13.00">bam_vcf_ch</text>
</g>
<!-- v18&#45;&gt;v20 -->
<g id="edge24" class="edge">
<title>v18&#45;&gt;v20</title>
<path fill="none" stroke="black" d="M5131.66,-408C5179.61,-408 5267.42,-408 5336.68,-408"/>
<polygon fill="black" stroke="black" points="5336.55,-411.5 5346.55,-408 5336.55,-404.5 5336.55,-411.5"/>
</g>
<!-- v21 -->
<g id="node22" class="node">
<title>v21</title>
<ellipse fill="black" stroke="black" cx="5781.45" cy="-408" rx="36" ry="36"/>
</g>
<!-- v20&#45;&gt;v21 -->
<g id="edge28" class="edge">
<title>v20&#45;&gt;v21</title>
<path fill="none" stroke="black" d="M5528.6,-408C5594.28,-408 5680.99,-408 5733.64,-408"/>
<polygon fill="black" stroke="black" points="5733.46,-411.5 5743.46,-408 5733.46,-404.5 5733.46,-411.5"/>
</g>
<!-- v19&#45;&gt;v20 -->
<g id="edge26" class="edge">
<title>v19&#45;&gt;v20</title>
<path fill="none" stroke="black" d="M5129.15,-277.81C5183.17,-300.62 5292.31,-346.71 5365.16,-377.47"/>
<polygon fill="black" stroke="black" points="5363.67,-380.64 5374.24,-381.31 5366.39,-374.19 5363.67,-380.64"/>
</g>
</g>
</svg>
