<?xml version="1.0" encoding="UTF-8" standalone="no"?>
<!DOCTYPE svg PUBLIC "-//W3C//DTD SVG 1.1//EN"
 "http://www.w3.org/Graphics/SVG/1.1/DTD/svg11.dtd">
<!-- Generated by graphviz version 12.2.1 (0)
 -->
<!-- Title: dag Pages: 1 -->
<svg width="1449pt" height="1025pt"
 viewBox="0.00 0.00 1449.20 1025.00" xmlns="http://www.w3.org/2000/svg" xmlns:xlink="http://www.w3.org/1999/xlink">
<g id="graph0" class="graph" transform="scale(1 1) rotate(0) translate(4 1021)">
<title>dag</title>
<polygon fill="white" stroke="none" points="-4,4 -4,-1021 1445.2,-1021 1445.2,4 -4,4"/>
<!-- v0 -->
<g id="node1" class="node">
<title>v0</title>
<ellipse fill="black" stroke="black" cx="687.2" cy="-996.9" rx="3.6" ry="3.6"/>
<text text-anchor="middle" x="633.73" y="-1003.7" font-family="Times,serif" font-size="14.00">Channel.fromPath</text>
</g>
<!-- v1 -->
<g id="node2" class="node">
<title>v1</title>
<ellipse fill="none" stroke="black" cx="687.2" cy="-922.8" rx="3.6" ry="3.6"/>
<text text-anchor="middle" x="661.48" y="-929.6" font-family="Times,serif" font-size="14.00">splitCsv</text>
</g>
<!-- v0&#45;&gt;v1 -->
<g id="edge1" class="edge">
<title>v0&#45;&gt;v1</title>
<path fill="none" stroke="black" d="M687.2,-992.8C687.2,-983.54 687.2,-955.61 687.2,-938.26"/>
<polygon fill="black" stroke="black" points="690.7,-938.32 687.2,-928.32 683.7,-938.32 690.7,-938.32"/>
</g>
<!-- v2 -->
<g id="node3" class="node">
<title>v2</title>
<ellipse fill="none" stroke="black" cx="687.2" cy="-864.2" rx="3.6" ry="3.6"/>
<text text-anchor="middle" x="671.6" y="-871" font-family="Times,serif" font-size="14.00">map</text>
</g>
<!-- v1&#45;&gt;v2 -->
<g id="edge2" class="edge">
<title>v1&#45;&gt;v2</title>
<path fill="none" stroke="black" d="M687.2,-918.76C687.2,-911.54 687.2,-893 687.2,-879.76"/>
<polygon fill="black" stroke="black" points="690.7,-879.77 687.2,-869.77 683.7,-879.77 690.7,-879.77"/>
</g>
<!-- v6 -->
<g id="node4" class="node">
<title>v6</title>
<ellipse fill="none" stroke="black" cx="687.2" cy="-804.5" rx="3.6" ry="3.6"/>
<text text-anchor="middle" x="659.98" y="-811.3" font-family="Times,serif" font-size="14.00">combine</text>
</g>
<!-- v2&#45;&gt;v6 -->
<g id="edge3" class="edge">
<title>v2&#45;&gt;v6</title>
<path fill="none" stroke="black" d="M687.2,-860.42C687.2,-853.2 687.2,-833.49 687.2,-819.76"/>
<polygon fill="black" stroke="black" points="690.7,-819.9 687.2,-809.9 683.7,-819.9 690.7,-819.9"/>
<text text-anchor="middle" x="711.2" y="-829.3" font-family="Times,serif" font-size="14.00">reads_ch</text>
</g>
<!-- v7 -->
<g id="node8" class="node">
<title>v7</title>
<ellipse fill="none" stroke="black" cx="686.2" cy="-744.8" rx="3.6" ry="3.6"/>
<text text-anchor="middle" x="664.23" y="-751.6" font-family="Times,serif" font-size="14.00">branch</text>
</g>
<!-- v6&#45;&gt;v7 -->
<g id="edge7" class="edge">
<title>v6&#45;&gt;v7</title>
<path fill="none" stroke="black" d="M687.15,-800.72C687.03,-793.5 686.69,-773.79 686.45,-760.06"/>
<polygon fill="black" stroke="black" points="689.95,-760.14 686.28,-750.2 682.95,-760.26 689.95,-760.14"/>
<text text-anchor="middle" x="711.94" y="-769.6" font-family="Times,serif" font-size="14.00">reads_ref</text>
</g>
<!-- v3 -->
<g id="node5" class="node">
<title>v3</title>
<ellipse fill="black" stroke="black" cx="946.2" cy="-996.9" rx="3.6" ry="3.6"/>
<text text-anchor="middle" x="892.73" y="-1003.7" font-family="Times,serif" font-size="14.00">Channel.fromPath</text>
</g>
<!-- v4 -->
<g id="node6" class="node">
<title>v4</title>
<ellipse fill="none" stroke="black" cx="946.2" cy="-922.8" rx="237.65" ry="18"/>
<text text-anchor="middle" x="946.2" y="-917.75" font-family="Times,serif" font-size="14.00">PACBIO_VARIANT_WORKFLOW:INDEX_REFERENCE</text>
</g>
<!-- v3&#45;&gt;v4 -->
<g id="edge4" class="edge">
<title>v3&#45;&gt;v4</title>
<path fill="none" stroke="black" d="M946.2,-992.8C946.2,-985.8 946.2,-968.14 946.2,-952.44"/>
<polygon fill="black" stroke="black" points="949.7,-952.54 946.2,-942.54 942.7,-952.54 949.7,-952.54"/>
<text text-anchor="middle" x="963.45" y="-962" font-family="Times,serif" font-size="14.00">ref_ch</text>
</g>
<!-- v5 -->
<g id="node7" class="node">
<title>v5</title>
<ellipse fill="none" stroke="black" cx="946.2" cy="-864.2" rx="3.6" ry="3.6"/>
<text text-anchor="middle" x="931.73" y="-871" font-family="Times,serif" font-size="14.00">first</text>
</g>
<!-- v4&#45;&gt;v5 -->
<g id="edge5" class="edge">
<title>v4&#45;&gt;v5</title>
<path fill="none" stroke="black" d="M946.2,-904.51C946.2,-896.48 946.2,-887.06 946.2,-879.45"/>
<polygon fill="black" stroke="black" points="949.7,-879.67 946.2,-869.67 942.7,-879.67 949.7,-879.67"/>
</g>
<!-- v5&#45;&gt;v6 -->
<g id="edge6" class="edge">
<title>v5&#45;&gt;v6</title>
<path fill="none" stroke="black" d="M942.81,-862.51C930.25,-859.96 885.21,-850.75 848.2,-842.6 794.04,-830.67 729.86,-815.6 701.68,-808.94"/>
<polygon fill="black" stroke="black" points="702.72,-805.58 692.18,-806.68 701.1,-812.4 702.72,-805.58"/>
<text text-anchor="middle" x="890.2" y="-829.3" font-family="Times,serif" font-size="14.00">ref_indexed_ch</text>
</g>
<!-- v11 -->
<g id="node12" class="node">
<title>v11</title>
<ellipse fill="none" stroke="black" cx="658.2" cy="-552.4" rx="3.6" ry="3.6"/>
<text text-anchor="middle" x="630.98" y="-559.2" font-family="Times,serif" font-size="14.00">combine</text>
</g>
<!-- v5&#45;&gt;v11 -->
<g id="edge13" class="edge">
<title>v5&#45;&gt;v11</title>
<path fill="none" stroke="black" d="M946.2,-860.55C946.2,-852.37 946.2,-826.74 946.2,-805.5 946.2,-805.5 946.2,-805.5 946.2,-611.1 946.2,-554.8 731.97,-552.7 673.04,-553.18"/>
<polygon fill="black" stroke="black" points="673.31,-549.68 663.36,-553.3 673.4,-556.68 673.31,-549.68"/>
<text text-anchor="middle" x="988.2" y="-709.9" font-family="Times,serif" font-size="14.00">ref_indexed_ch</text>
</g>
<!-- v22 -->
<g id="node22" class="node">
<title>v22</title>
<ellipse fill="none" stroke="black" cx="1188.2" cy="-58.6" rx="217.69" ry="18"/>
<text text-anchor="middle" x="1188.2" y="-53.55" font-family="Times,serif" font-size="14.00">PACBIO_VARIANT_WORKFLOW:QC_SUMMARY</text>
</g>
<!-- v5&#45;&gt;v22 -->
<g id="edge29" class="edge">
<title>v5&#45;&gt;v22</title>
<path fill="none" stroke="black" d="M950.01,-863.08C991.44,-861.78 1357.2,-849 1357.2,-805.5 1357.2,-805.5 1357.2,-805.5 1357.2,-116.2 1357.2,-99.59 1327.46,-86.95 1292.93,-77.88"/>
<polygon fill="black" stroke="black" points="1294.11,-74.57 1283.56,-75.54 1292.42,-81.36 1294.11,-74.57"/>
<text text-anchor="middle" x="1399.2" y="-457.8" font-family="Times,serif" font-size="14.00">ref_indexed_ch</text>
</g>
<!-- v8 -->
<g id="node9" class="node">
<title>v8</title>
<ellipse fill="none" stroke="black" cx="686.2" cy="-670.7" rx="231.51" ry="18"/>
<text text-anchor="middle" x="686.2" y="-665.65" font-family="Times,serif" font-size="14.00">PACBIO_VARIANT_WORKFLOW:ALIGN_MINIMAP2</text>
</g>
<!-- v7&#45;&gt;v8 -->
<g id="edge8" class="edge">
<title>v7&#45;&gt;v8</title>
<path fill="none" stroke="black" d="M686.2,-740.7C686.2,-733.7 686.2,-716.04 686.2,-700.34"/>
<polygon fill="black" stroke="black" points="689.7,-700.44 686.2,-690.44 682.7,-700.44 689.7,-700.44"/>
</g>
<!-- v9 -->
<g id="node10" class="node">
<title>v9</title>
<ellipse fill="none" stroke="black" cx="218.2" cy="-670.7" rx="218.2" ry="18"/>
<text text-anchor="middle" x="218.2" y="-665.65" font-family="Times,serif" font-size="14.00">PACBIO_VARIANT_WORKFLOW:ALIGN_PBMM2</text>
</g>
<!-- v7&#45;&gt;v9 -->
<g id="edge9" class="edge">
<title>v7&#45;&gt;v9</title>
<path fill="none" stroke="black" d="M682.43,-743.22C652.98,-738.68 457.41,-708.55 329.68,-688.87"/>
<polygon fill="black" stroke="black" points="330.22,-685.42 319.8,-687.35 329.15,-692.33 330.22,-685.42"/>
</g>
<!-- v10 -->
<g id="node11" class="node">
<title>v10</title>
<ellipse fill="none" stroke="black" cx="504.2" cy="-612.1" rx="3.6" ry="3.6"/>
<text text-anchor="middle" x="489.73" y="-618.9" font-family="Times,serif" font-size="14.00">mix</text>
</g>
<!-- v8&#45;&gt;v10 -->
<g id="edge10" class="edge">
<title>v8&#45;&gt;v10</title>
<path fill="none" stroke="black" d="M632.09,-652.87C592.85,-640.67 542.59,-625.04 518.43,-617.52"/>
<polygon fill="black" stroke="black" points="519.53,-614.2 508.94,-614.57 517.45,-620.89 519.53,-614.2"/>
</g>
<!-- v9&#45;&gt;v10 -->
<g id="edge11" class="edge">
<title>v9&#45;&gt;v10</title>
<path fill="none" stroke="black" d="M299.77,-653.56C366.53,-640.35 455.32,-622.77 489.73,-615.96"/>
<polygon fill="black" stroke="black" points="490.04,-619.47 499.17,-614.1 488.68,-612.6 490.04,-619.47"/>
</g>
<!-- v10&#45;&gt;v11 -->
<g id="edge12" class="edge">
<title>v10&#45;&gt;v11</title>
<path fill="none" stroke="black" d="M507.42,-609.89C525.11,-603.27 611.01,-571.08 644.65,-558.48"/>
<polygon fill="black" stroke="black" points="645.45,-561.92 653.58,-555.13 642.99,-555.36 645.45,-561.92"/>
<text text-anchor="middle" x="611.52" y="-577.2" font-family="Times,serif" font-size="14.00">bam</text>
</g>
<!-- v18 -->
<g id="node19" class="node">
<title>v18</title>
<ellipse fill="none" stroke="black" cx="740.2" cy="-221.1" rx="3.6" ry="3.6"/>
<text text-anchor="middle" x="726.1" y="-227.9" font-family="Times,serif" font-size="14.00">join</text>
</g>
<!-- v10&#45;&gt;v18 -->
<g id="edge23" class="edge">
<title>v10&#45;&gt;v18</title>
<path fill="none" stroke="black" d="M500.42,-610.54C476.86,-606.96 351.2,-586.33 351.2,-553.4 351.2,-553.4 351.2,-553.4 351.2,-279.8 351.2,-241.32 652.94,-225.86 724.92,-222.72"/>
<polygon fill="black" stroke="black" points="724.99,-226.22 734.84,-222.31 724.7,-219.23 724.99,-226.22"/>
<text text-anchor="middle" x="363.2" y="-413.55" font-family="Times,serif" font-size="14.00">bam</text>
</g>
<!-- v12 -->
<g id="node13" class="node">
<title>v12</title>
<ellipse fill="none" stroke="black" cx="658.2" cy="-492.7" rx="3.6" ry="3.6"/>
<text text-anchor="middle" x="636.23" y="-499.5" font-family="Times,serif" font-size="14.00">branch</text>
</g>
<!-- v11&#45;&gt;v12 -->
<g id="edge14" class="edge">
<title>v11&#45;&gt;v12</title>
<path fill="none" stroke="black" d="M658.2,-548.62C658.2,-541.4 658.2,-521.69 658.2,-507.96"/>
<polygon fill="black" stroke="black" points="661.7,-508.1 658.2,-498.1 654.7,-508.1 661.7,-508.1"/>
<text text-anchor="middle" x="681.08" y="-517.5" font-family="Times,serif" font-size="14.00">bam_ref</text>
</g>
<!-- v14 -->
<g id="node14" class="node">
<title>v14</title>
<ellipse fill="none" stroke="black" cx="1116.2" cy="-418.6" rx="212.57" ry="18"/>
<text text-anchor="middle" x="1116.2" y="-413.55" font-family="Times,serif" font-size="14.00">PACBIO_VARIANT_WORKFLOW:CALL_CLAIR3</text>
</g>
<!-- v12&#45;&gt;v14 -->
<g id="edge15" class="edge">
<title>v12&#45;&gt;v14</title>
<path fill="none" stroke="black" d="M661.89,-491.12C690.71,-486.58 882.1,-456.45 1007.1,-436.77"/>
<polygon fill="black" stroke="black" points="1007.4,-440.27 1016.74,-435.26 1006.32,-433.36 1007.4,-440.27"/>
</g>
<!-- v13 -->
<g id="node15" class="node">
<title>v13</title>
<ellipse fill="none" stroke="black" cx="658.2" cy="-418.6" rx="227.41" ry="18"/>
<text text-anchor="middle" x="658.2" y="-413.55" font-family="Times,serif" font-size="14.00">PACBIO_VARIANT_WORKFLOW:CALL_BCFTOOLS</text>
</g>
<!-- v12&#45;&gt;v13 -->
<g id="edge16" class="edge">
<title>v12&#45;&gt;v13</title>
<path fill="none" stroke="black" d="M658.2,-488.6C658.2,-481.6 658.2,-463.94 658.2,-448.24"/>
<polygon fill="black" stroke="black" points="661.7,-448.34 658.2,-438.34 654.7,-448.34 661.7,-448.34"/>
</g>
<!-- v15 -->
<g id="node16" class="node">
<title>v15</title>
<ellipse fill="none" stroke="black" cx="610.2" cy="-364.6" rx="243.79" ry="18"/>
<text text-anchor="middle" x="610.2" y="-359.55" font-family="Times,serif" font-size="14.00">PACBIO_VARIANT_WORKFLOW:CALL_DEEPVARIANT</text>
</g>
<!-- v12&#45;&gt;v15 -->
<g id="edge17" class="edge">
<title>v12&#45;&gt;v15</title>
<path fill="none" stroke="black" d="M654.32,-491.43C626.11,-489.38 452.93,-475.33 422.2,-436.6 400.89,-409.73 423.66,-393.03 459.8,-382.65"/>
<polygon fill="black" stroke="black" points="460.61,-386.05 469.4,-380.14 458.84,-379.28 460.61,-386.05"/>
</g>
<!-- v16 -->
<g id="node17" class="node">
<title>v16</title>
<ellipse fill="none" stroke="black" cx="869.2" cy="-325" rx="3.6" ry="3.6"/>
<text text-anchor="middle" x="854.73" y="-331.8" font-family="Times,serif" font-size="14.00">mix</text>
</g>
<!-- v14&#45;&gt;v16 -->
<g id="edge19" class="edge">
<title>v14&#45;&gt;v16</title>
<path fill="none" stroke="black" d="M1070.32,-400.59C1013.17,-379.39 918.73,-344.37 883.25,-331.21"/>
<polygon fill="black" stroke="black" points="884.48,-327.93 873.88,-327.74 882.04,-334.5 884.48,-327.93"/>
</g>
<!-- v13&#45;&gt;v16 -->
<g id="edge18" class="edge">
<title>v13&#45;&gt;v16</title>
<path fill="none" stroke="black" d="M796.38,-403.94C822.73,-398.85 845.21,-391.94 855.2,-382.6 866.69,-371.85 869.39,-353.28 869.74,-340.35"/>
<polygon fill="black" stroke="black" points="873.24,-340.31 869.51,-330.39 866.24,-340.47 873.24,-340.31"/>
</g>
<!-- v17 -->
<g id="node18" class="node">
<title>v17</title>
<ellipse fill="none" stroke="black" cx="740.2" cy="-280.8" rx="3.6" ry="3.6"/>
<text text-anchor="middle" x="725.73" y="-287.6" font-family="Times,serif" font-size="14.00">mix</text>
</g>
<!-- v15&#45;&gt;v17 -->
<g id="edge20" class="edge">
<title>v15&#45;&gt;v17</title>
<path fill="none" stroke="black" d="M637.77,-346.25C665.55,-328.77 707.17,-302.58 727.76,-289.63"/>
<polygon fill="black" stroke="black" points="729.48,-292.68 736.08,-284.39 725.76,-286.75 729.48,-292.68"/>
</g>
<!-- v16&#45;&gt;v17 -->
<g id="edge21" class="edge">
<title>v16&#45;&gt;v17</title>
<path fill="none" stroke="black" d="M865.75,-322.87C849.84,-317.67 783.08,-295.83 753.93,-286.29"/>
<polygon fill="black" stroke="black" points="755.28,-283.05 744.69,-283.27 753.11,-289.7 755.28,-283.05"/>
</g>
<!-- v17&#45;&gt;v18 -->
<g id="edge22" class="edge">
<title>v17&#45;&gt;v18</title>
<path fill="none" stroke="black" d="M740.2,-277.02C740.2,-269.8 740.2,-250.09 740.2,-236.36"/>
<polygon fill="black" stroke="black" points="743.7,-236.5 740.2,-226.5 736.7,-236.5 743.7,-236.5"/>
<text text-anchor="middle" x="748.83" y="-245.9" font-family="Times,serif" font-size="14.00">vcf</text>
</g>
<!-- v19 -->
<g id="node20" class="node">
<title>v19</title>
<ellipse fill="none" stroke="black" cx="1097.2" cy="-176.9" rx="3.6" ry="3.6"/>
<text text-anchor="middle" x="1081.6" y="-183.7" font-family="Times,serif" font-size="14.00">map</text>
</g>
<!-- v18&#45;&gt;v19 -->
<g id="edge24" class="edge">
<title>v18&#45;&gt;v19</title>
<path fill="none" stroke="black" d="M743.73,-219.68C775.98,-215.87 1019.52,-187.08 1082.41,-179.65"/>
<polygon fill="black" stroke="black" points="1082.62,-183.15 1092.14,-178.5 1081.79,-176.2 1082.62,-183.15"/>
</g>
<!-- v20 -->
<g id="node21" class="node">
<title>v20</title>
<ellipse fill="none" stroke="black" cx="1188.2" cy="-117.2" rx="3.6" ry="3.6"/>
<text text-anchor="middle" x="1172.6" y="-124" font-family="Times,serif" font-size="14.00">map</text>
</g>
<!-- v19&#45;&gt;v20 -->
<g id="edge25" class="edge">
<title>v19&#45;&gt;v20</title>
<path fill="none" stroke="black" d="M1101.08,-175.71C1112.33,-174.97 1145.51,-171.46 1166.2,-155.3 1174.01,-149.2 1179.62,-139.5 1183.22,-131.55"/>
<polygon fill="black" stroke="black" points="1186.41,-133.01 1186.79,-122.42 1179.89,-130.46 1186.41,-133.01"/>
<text text-anchor="middle" x="1213.14" y="-142" font-family="Times,serif" font-size="14.00">bam_vcf_ch</text>
</g>
<!-- v21 -->
<g id="node23" class="node">
<title>v21</title>
<ellipse fill="none" stroke="black" cx="1114.2" cy="-117.2" rx="3.6" ry="3.6"/>
<text text-anchor="middle" x="1098.6" y="-124" font-family="Times,serif" font-size="14.00">map</text>
</g>
<!-- v19&#45;&gt;v21 -->
<g id="edge27" class="edge">
<title>v19&#45;&gt;v21</title>
<path fill="none" stroke="black" d="M1096.76,-173.09C1095.89,-166.76 1094.37,-150.94 1098.7,-138.8 1099.95,-135.29 1102.04,-131.88 1104.27,-128.87"/>
<polygon fill="black" stroke="black" points="1106.83,-131.26 1110.86,-121.46 1101.6,-126.61 1106.83,-131.26"/>
<text text-anchor="middle" x="1132.45" y="-142" font-family="Times,serif" font-size="14.00">bam_vcf_ch</text>
</g>
<!-- v20&#45;&gt;v22 -->
<g id="edge26" class="edge">
<title>v20&#45;&gt;v22</title>
<path fill="none" stroke="black" d="M1188.2,-113.16C1188.2,-108.34 1188.2,-98.47 1188.2,-88.5"/>
<polygon fill="black" stroke="black" points="1191.7,-88.57 1188.2,-78.57 1184.7,-88.57 1191.7,-88.57"/>
</g>
<!-- v23 -->
<g id="node24" class="node">
<title>v23</title>
<ellipse fill="black" stroke="black" cx="1188.2" cy="-1.8" rx="1.8" ry="1.8"/>
</g>
<!-- v22&#45;&gt;v23 -->
<g id="edge30" class="edge">
<title>v22&#45;&gt;v23</title>
<path fill="none" stroke="black" d="M1188.2,-40.26C1188.2,-32.18 1188.2,-22.74 1188.2,-15.35"/>
<polygon fill="black" stroke="black" points="1191.7,-15.51 1188.2,-5.51 1184.7,-15.51 1191.7,-15.51"/>
</g>
<!-- v21&#45;&gt;v22 -->
<g id="edge28" class="edge">
<title>v21&#45;&gt;v22</title>
<path fill="none" stroke="black" d="M1116.66,-114.32C1123.05,-109.43 1140.8,-95.85 1157.02,-83.45"/>
<polygon fill="black" stroke="black" points="1158.77,-86.52 1164.59,-77.66 1154.52,-80.96 1158.77,-86.52"/>
</g>
</g>
</svg>
